{
	"asset":{
		"generator":"Khronos glTF Blender I/O v4.3.47",
		"version":"2.0"
	},
	"extensionsUsed":[
		"KHR_materials_emissive_strength"
	],
	"scene":0,
	"scenes":[
		{
			"name":"Scene",
			"nodes":[
				0
			]
		}
	],
	"nodes":[
		{
			"mesh":0,
			"name":"hero",
			"rotation":[
				0,
				0.9922164082527161,
				0,
				0.12452638894319534
			],
			"scale":[
				0.7703816890716553,
				0.7703816890716553,
				0.7703816890716553
			],
			"translation":[
				5.016096591949463,
				0.18745146691799164,
				5.903681755065918
			]
		}
	],
	"materials":[
		{
			"doubleSided":true,
			"name":"tripo_mat_36175991",
			"pbrMetallicRoughness":{
				"baseColorTexture":{
					"index":0
				},
				"metallicFactor":0,
				"roughnessFactor":0.8999999761581421
			}
		},
		{
			"doubleSided":true,
			"emissiveFactor":[
				0,
				0.04626076690145653,
				1
			],
			"extensions":{
				"KHR_materials_emissive_strength":{
					"emissiveStrength":4.79320228099823
				}
			},
			"name":"EMISSION_BLUE",
			"pbrMetallicRoughness":{
				"baseColorFactor":[
					0,
					0,
					0,
					1
				],
				"metallicFactor":0,
				"roughnessFactor":0.5
			}
		}
	],
	"meshes":[
		{
			"name":"tripo_mesh_36175991",
			"primitives":[
				{
					"attributes":{
						"POSITION":0,
						"NORMAL":1,
						"TEXCOORD_0":2
					},
					"indices":3,
					"material":0
				},
				{
					"attributes":{
						"POSITION":4,
						"NORMAL":5,
						"TEXCOORD_0":6
					},
					"indices":7,
					"material":1
				}
			]
		}
	],
	"textures":[
		{
			"sampler":0,
			"source":0
		}
	],
	"images":[
		{
			"mimeType":"image/jpeg",
			"name":"tripo_node_825405b6_BaseColor",
			"uri":"tripo_node_825405b6_BaseColor.jpg"
		}
	],
	"accessors":[
		{
			"bufferView":0,
			"componentType":5126,
			"count":27978,
			"max":[
				0.49568694829940796,
				0.6810553073883057,
				0.4452437162399292
			],
			"min":[
				-0.49568694829940796,
				0,
				-0.4452437162399292
			],
			"type":"VEC3"
		},
		{
			"bufferView":1,
			"componentType":5126,
			"count":27978,
			"type":"VEC3"
		},
		{
			"bufferView":2,
			"componentType":5126,
			"count":27978,
			"type":"VEC2"
		},
		{
			"bufferView":3,
			"componentType":5123,
			"count":93552,
			"type":"SCALAR"
		},
		{
			"bufferView":4,
			"componentType":5126,
			"count":81,
			"max":[
				0.23143194615840912,
				0.25424009561538696,
				0.4177466630935669
			],
			"min":[
				-0.11870261281728745,
				0.16520042717456818,
				-0.4160740077495575
			],
			"type":"VEC3"
		},
		{
			"bufferView":5,
			"componentType":5126,
			"count":81,
			"type":"VEC3"
		},
		{
			"bufferView":6,
			"componentType":5126,
			"count":81,
			"type":"VEC2"
		},
		{
			"bufferView":7,
			"componentType":5123,
			"count":228,
			"type":"SCALAR"
		}
	],
	"bufferViews":[
		{
			"buffer":0,
			"byteLength":335736,
			"byteOffset":0,
			"target":34962
		},
		{
			"buffer":0,
			"byteLength":335736,
			"byteOffset":335736,
			"target":34962
		},
		{
			"buffer":0,
			"byteLength":223824,
			"byteOffset":671472,
			"target":34962
		},
		{
			"buffer":0,
			"byteLength":187104,
			"byteOffset":895296,
			"target":34963
		},
		{
			"buffer":0,
			"byteLength":972,
			"byteOffset":1082400,
			"target":34962
		},
		{
			"buffer":0,
			"byteLength":972,
			"byteOffset":1083372,
			"target":34962
		},
		{
			"buffer":0,
			"byteLength":648,
			"byteOffset":1084344,
			"target":34962
		},
		{
			"buffer":0,
			"byteLength":456,
			"byteOffset":1084992,
			"target":34963
		}
	],
	"samplers":[
		{
			"magFilter":9729,
			"minFilter":9987
		}
	],
	"buffers":[
		{
			"byteLength":1085448,
			"uri":"hero.bin"
		}
	]
}
