{
	"asset":{
		"generator":"Khronos glTF Blender I/O v4.3.47",
		"version":"2.0"
	},
	"extensionsUsed":[
		"KHR_lights_punctual"
	],
	"extensionsRequired":[
		"KHR_lights_punctual"
	],
	"extensions":{
		"KHR_lights_punctual":{
			"lights":[
				{
					"color":[
						0.991473913192749,
						1,
						0.8526228070259094
					],
					"intensity":543514.1306588226,
					"spot":{
						"innerConeAngle":0.11126474213063897,
						"outerConeAngle":0.13089969754219055
					},
					"type":"spot",
					"name":"Light.004"
				},
				{
					"color":[
						0.10379298031330109,
						0.2884449362754822,
						1
					],
					"intensity":17588.115941180706,
					"spot":{
						"innerConeAngle":0.11126474213063897,
						"outerConeAngle":0.13089969754219055
					},
					"type":"spot",
					"name":"Light.005"
				}
			]
		}
	},
	"scene":0,
	"scenes":[
		{
			"name":"Scene",
			"nodes":[
				0,
				1,
				2,
				3,
				4
			]
		}
	],
	"nodes":[
		{
			"mesh":0,
			"name":"dart",
			"rotation":[
				0.2705981135368347,
				0.6532815098762512,
				-0.2705979645252228,
				0.6532815098762512
			],
			"translation":[
				-13.150848388671875,
				0.70245361328125,
				-3.30718994140625
			]
		},
		{
			"mesh":1,
			"name":"\u4e2d\u9556",
			"scale":[
				0,
				0,
				0
			],
			"translation":[
				12.307868957519531,
				1.5079679489135742,
				0.3076445460319519
			]
		},
		{
			"camera":0,
			"name":"\u6444\u50cf\u673a",
			"rotation":[
				0.1426573544740677,
				-0.9726046919822693,
				-0.10805243253707886,
				0.14837054908275604
			],
			"scale":[
				1.095516562461853,
				1.095516324043274,
				1.0955164432525635
			],
			"translation":[
				-12.492622375488281,
				1.394424319267273,
				-3.3143725395202637
			]
		},
		{
			"extensions":{
				"KHR_lights_punctual":{
					"light":0
				}
			},
			"name":"Light.002",
			"rotation":[
				0.027670660987496376,
				-0.011317001655697823,
				-0.7753125429153442,
				0.6308698654174805
			],
			"scale":[
				0.34814873337745667,
				0.3481486141681671,
				0.3481485843658447
			],
			"translation":[
				-13.116267204284668,
				0.7906873226165771,
				0.4686751365661621
			]
		},
		{
			"extensions":{
				"KHR_lights_punctual":{
					"light":1
				}
			},
			"name":"Light.003",
			"rotation":[
				0.6318656206130981,
				0.7702746391296387,
				-0.06682942062616348,
				0.05437547713518143
			],
			"scale":[
				0.34814873337745667,
				0.3481486141681671,
				0.3481485843658447
			],
			"translation":[
				-13.116267204284668,
				0.06001102924346924,
				-8.579131126403809
			]
		}
	],
	"cameras":[
		{
			"name":"\u6444\u50cf\u673a",
			"perspective":{
				"aspectRatio":1.7777777777777777,
				"yfov":1.8042135969597715,
				"zfar":1000,
				"znear":0.10000000149011612
			},
			"type":"perspective"
		}
	],
	"animations":[
		{
			"channels":[
				{
					"sampler":0,
					"target":{
						"node":0,
						"path":"translation"
					}
				},
				{
					"sampler":1,
					"target":{
						"node":0,
						"path":"rotation"
					}
				},
				{
					"sampler":2,
					"target":{
						"node":0,
						"path":"scale"
					}
				},
				{
					"sampler":3,
					"target":{
						"node":1,
						"path":"translation"
					}
				},
				{
					"sampler":4,
					"target":{
						"node":1,
						"path":"rotation"
					}
				},
				{
					"sampler":5,
					"target":{
						"node":1,
						"path":"scale"
					}
				},
				{
					"sampler":6,
					"target":{
						"node":2,
						"path":"translation"
					}
				},
				{
					"sampler":7,
					"target":{
						"node":2,
						"path":"rotation"
					}
				},
				{
					"sampler":8,
					"target":{
						"node":2,
						"path":"scale"
					}
				},
				{
					"sampler":9,
					"target":{
						"node":3,
						"path":"translation"
					}
				},
				{
					"sampler":10,
					"target":{
						"node":4,
						"path":"translation"
					}
				}
			],
			"name":"Animation",
			"samplers":[
				{
					"input":8,
					"interpolation":"LINEAR",
					"output":9
				},
				{
					"input":8,
					"interpolation":"LINEAR",
					"output":10
				},
				{
					"input":11,
					"interpolation":"STEP",
					"output":12
				},
				{
					"input":13,
					"interpolation":"LINEAR",
					"output":14
				},
				{
					"input":13,
					"interpolation":"LINEAR",
					"output":15
				},
				{
					"input":13,
					"interpolation":"LINEAR",
					"output":16
				},
				{
					"input":17,
					"interpolation":"LINEAR",
					"output":18
				},
				{
					"input":17,
					"interpolation":"LINEAR",
					"output":19
				},
				{
					"input":20,
					"interpolation":"STEP",
					"output":21
				},
				{
					"input":17,
					"interpolation":"LINEAR",
					"output":22
				},
				{
					"input":17,
					"interpolation":"LINEAR",
					"output":23
				}
			]
		}
	],
	"materials":[
		{
			"doubleSided":true,
			"name":"dart",
			"pbrMetallicRoughness":{
				"baseColorTexture":{
					"index":0
				},
				"metallicFactor":0.5090909004211426,
				"roughnessFactor":0.5
			}
		},
		{
			"alphaMode":"BLEND",
			"doubleSided":true,
			"emissiveFactor":[
				1,
				1,
				1
			],
			"emissiveTexture":{
				"index":1
			},
			"name":"hit",
			"pbrMetallicRoughness":{
				"baseColorFactor":[
					0,
					0,
					0,
					1
				],
				"baseColorTexture":{
					"index":2
				},
				"metallicFactor":0,
				"roughnessFactor":0.5
			}
		}
	],
	"meshes":[
		{
			"name":"tripo_mesh_73138e29",
			"primitives":[
				{
					"attributes":{
						"POSITION":0,
						"NORMAL":1,
						"TEXCOORD_0":2
					},
					"indices":3,
					"material":0
				}
			]
		},
		{
			"name":"\u5e73\u9762.004",
			"primitives":[
				{
					"attributes":{
						"POSITION":4,
						"NORMAL":5,
						"TEXCOORD_0":6
					},
					"indices":7,
					"material":1
				}
			]
		}
	],
	"textures":[
		{
			"sampler":0,
			"source":0
		},
		{
			"sampler":0,
			"source":1
		},
		{
			"sampler":0,
			"source":1
		}
	],
	"images":[
		{
			"mimeType":"image/jpeg",
			"name":"dart",
			"uri":"dart.jpg"
		},
		{
			"mimeType":"image/png",
			"name":"hit",
			"uri":"hit.png"
		}
	],
	"accessors":[
		{
			"bufferView":0,
			"componentType":5126,
			"count":7445,
			"max":[
				0.07177184522151947,
				0.13074366748332977,
				0.08250034600496292
			],
			"min":[
				-0.07035806775093079,
				-0.11474983394145966,
				-0.08268552273511887
			],
			"type":"VEC3"
		},
		{
			"bufferView":1,
			"componentType":5126,
			"count":7445,
			"type":"VEC3"
		},
		{
			"bufferView":2,
			"componentType":5126,
			"count":7445,
			"type":"VEC2"
		},
		{
			"bufferView":3,
			"componentType":5123,
			"count":13173,
			"type":"SCALAR"
		},
		{
			"bufferView":4,
			"componentType":5126,
			"count":4,
			"max":[
				0,
				0.005415118299424648,
				0.005380782764405012
			],
			"min":[
				0,
				-0.005415118765085936,
				-0.005380782764405012
			],
			"type":"VEC3"
		},
		{
			"bufferView":5,
			"componentType":5126,
			"count":4,
			"type":"VEC3"
		},
		{
			"bufferView":6,
			"componentType":5126,
			"count":4,
			"type":"VEC2"
		},
		{
			"bufferView":7,
			"componentType":5123,
			"count":6,
			"type":"SCALAR"
		},
		{
			"bufferView":8,
			"componentType":5126,
			"count":100,
			"max":[
				4.166666666666667
			],
			"min":[
				0.041666666666666664
			],
			"type":"SCALAR"
		},
		{
			"bufferView":9,
			"componentType":5126,
			"count":100,
			"type":"VEC3"
		},
		{
			"bufferView":10,
			"componentType":5126,
			"count":100,
			"type":"VEC4"
		},
		{
			"bufferView":11,
			"componentType":5126,
			"count":2,
			"max":[
				4.166666666666667
			],
			"min":[
				0.041666666666666664
			],
			"type":"SCALAR"
		},
		{
			"bufferView":12,
			"componentType":5126,
			"count":2,
			"type":"VEC3"
		},
		{
			"bufferView":13,
			"componentType":5126,
			"count":18,
			"max":[
				3.875
			],
			"min":[
				3.1666666666666665
			],
			"type":"SCALAR"
		},
		{
			"bufferView":14,
			"componentType":5126,
			"count":18,
			"type":"VEC3"
		},
		{
			"bufferView":15,
			"componentType":5126,
			"count":18,
			"type":"VEC4"
		},
		{
			"bufferView":16,
			"componentType":5126,
			"count":18,
			"type":"VEC3"
		},
		{
			"bufferView":17,
			"componentType":5126,
			"count":145,
			"max":[
				6.041666666666667
			],
			"min":[
				0.041666666666666664
			],
			"type":"SCALAR"
		},
		{
			"bufferView":18,
			"componentType":5126,
			"count":145,
			"type":"VEC3"
		},
		{
			"bufferView":19,
			"componentType":5126,
			"count":145,
			"type":"VEC4"
		},
		{
			"bufferView":20,
			"componentType":5126,
			"count":2,
			"max":[
				6.041666666666667
			],
			"min":[
				0.041666666666666664
			],
			"type":"SCALAR"
		},
		{
			"bufferView":21,
			"componentType":5126,
			"count":2,
			"type":"VEC3"
		},
		{
			"bufferView":22,
			"componentType":5126,
			"count":145,
			"type":"VEC3"
		},
		{
			"bufferView":23,
			"componentType":5126,
			"count":145,
			"type":"VEC3"
		}
	],
	"bufferViews":[
		{
			"buffer":0,
			"byteLength":89340,
			"byteOffset":0,
			"target":34962
		},
		{
			"buffer":0,
			"byteLength":89340,
			"byteOffset":89340,
			"target":34962
		},
		{
			"buffer":0,
			"byteLength":59560,
			"byteOffset":178680,
			"target":34962
		},
		{
			"buffer":0,
			"byteLength":26346,
			"byteOffset":238240,
			"target":34963
		},
		{
			"buffer":0,
			"byteLength":48,
			"byteOffset":264588,
			"target":34962
		},
		{
			"buffer":0,
			"byteLength":48,
			"byteOffset":264636,
			"target":34962
		},
		{
			"buffer":0,
			"byteLength":32,
			"byteOffset":264684,
			"target":34962
		},
		{
			"buffer":0,
			"byteLength":12,
			"byteOffset":264716,
			"target":34963
		},
		{
			"buffer":0,
			"byteLength":400,
			"byteOffset":264728
		},
		{
			"buffer":0,
			"byteLength":1200,
			"byteOffset":265128
		},
		{
			"buffer":0,
			"byteLength":1600,
			"byteOffset":266328
		},
		{
			"buffer":0,
			"byteLength":8,
			"byteOffset":267928
		},
		{
			"buffer":0,
			"byteLength":24,
			"byteOffset":267936
		},
		{
			"buffer":0,
			"byteLength":72,
			"byteOffset":267960
		},
		{
			"buffer":0,
			"byteLength":216,
			"byteOffset":268032
		},
		{
			"buffer":0,
			"byteLength":288,
			"byteOffset":268248
		},
		{
			"buffer":0,
			"byteLength":216,
			"byteOffset":268536
		},
		{
			"buffer":0,
			"byteLength":580,
			"byteOffset":268752
		},
		{
			"buffer":0,
			"byteLength":1740,
			"byteOffset":269332
		},
		{
			"buffer":0,
			"byteLength":2320,
			"byteOffset":271072
		},
		{
			"buffer":0,
			"byteLength":8,
			"byteOffset":273392
		},
		{
			"buffer":0,
			"byteLength":24,
			"byteOffset":273400
		},
		{
			"buffer":0,
			"byteLength":1740,
			"byteOffset":273424
		},
		{
			"buffer":0,
			"byteLength":1740,
			"byteOffset":275164
		}
	],
	"samplers":[
		{
			"magFilter":9729,
			"minFilter":9987
		}
	],
	"buffers":[
		{
			"byteLength":276904,
			"uri":"arena.bin"
		}
	]
}
