{
	"asset":{
		"generator":"Khronos glTF Blender I/O v4.3.47",
		"version":"2.0"
	},
	"scene":0,
	"scenes":[
		{
			"name":"Scene",
			"nodes":[
				0
			]
		}
	],
	"nodes":[
		{
			"mesh":0,
			"name":"dart",
			"rotation":[
				0.2705981135368347,
				0.6532815098762512,
				-0.2705979645252228,
				0.6532815098762512
			],
			"translation":[
				-13.150848388671875,
				0.70245361328125,
				-3.30718994140625
			]
		}
	],
	"materials":[
		{
			"doubleSided":true,
			"name":"dart",
			"pbrMetallicRoughness":{
				"baseColorTexture":{
					"index":0
				},
				"metallicFactor":0.5090909004211426,
				"roughnessFactor":0.5
			}
		}
	],
	"meshes":[
		{
			"name":"tripo_mesh_73138e29",
			"primitives":[
				{
					"attributes":{
						"POSITION":0,
						"NORMAL":1,
						"TEXCOORD_0":2
					},
					"indices":3,
					"material":0
				}
			]
		}
	],
	"textures":[
		{
			"sampler":0,
			"source":0
		}
	],
	"images":[
		{
			"mimeType":"image/webp",
			"name":"dart",
			"uri":"dart.webp"
		}
	],
	"accessors":[
		{
			"bufferView":0,
			"componentType":5126,
			"count":7445,
			"max":[
				0.07177184522151947,
				0.13074366748332977,
				0.08250034600496292
			],
			"min":[
				-0.07035806775093079,
				-0.11474983394145966,
				-0.08268552273511887
			],
			"type":"VEC3"
		},
		{
			"bufferView":1,
			"componentType":5126,
			"count":7445,
			"type":"VEC3"
		},
		{
			"bufferView":2,
			"componentType":5126,
			"count":7445,
			"type":"VEC2"
		},
		{
			"bufferView":3,
			"componentType":5123,
			"count":13173,
			"type":"SCALAR"
		}
	],
	"bufferViews":[
		{
			"buffer":0,
			"byteLength":89340,
			"byteOffset":0,
			"target":34962
		},
		{
			"buffer":0,
			"byteLength":89340,
			"byteOffset":89340,
			"target":34962
		},
		{
			"buffer":0,
			"byteLength":59560,
			"byteOffset":178680,
			"target":34962
		},
		{
			"buffer":0,
			"byteLength":26346,
			"byteOffset":238240,
			"target":34963
		}
	],
	"samplers":[
		{
			"magFilter":9729,
			"minFilter":9987
		}
	],
	"buffers":[
		{
			"byteLength":264588,
			"uri":"dart.bin"
		}
	]
}
