{
	"asset":{
		"generator":"Khronos glTF Blender I/O v4.3.47",
		"version":"2.0"
	},
	"extensionsUsed":[
		"KHR_materials_emissive_strength"
	],
	"scene":0,
	"scenes":[
		{
			"name":"Scene",
			"nodes":[
				0,
				1,
				2,
				3,
				4
			]
		}
	],
	"nodes":[
		{
			"mesh":0,
			"name":"ground"
		},
		{
			"mesh":1,
			"name":"outpost"
		},
		{
			"mesh":2,
			"name":"base",
			"rotation":[
				0.5,
				0.5000000596046448,
				-0.5000001192092896,
				0.5
			]
		},
		{
			"mesh":3,
			"name":"rune_blue",
			"rotation":[
				-0.012357876636087894,
				0,
				-0.012357868254184723,
				0.9998472929000854
			],
			"translation":[
				0.3666893541812897,
				2.5999996662139893,
				0.36175256967544556
			]
		},
		{
			"mesh":4,
			"name":"rune_red",
			"rotation":[
				0.01235787384212017,
				-0.9998472929000854,
				-0.012357870116829872,
				4.3757015788514764e-08
			],
			"translation":[
				-0.3666892945766449,
				2.5999999046325684,
				-0.3617526888847351
			]
		}
	],
	"materials":[
		{
			"doubleSided":true,
			"name":"SCENE_DARK_GREY",
			"pbrMetallicRoughness":{
				"baseColorTexture":{
					"index":0
				},
				"metallicFactor":0,
				"roughnessFactor":0.5
			}
		},
		{
			"doubleSided":true,
			"name":"SCENE_WHITE",
			"pbrMetallicRoughness":{
				"baseColorTexture":{
					"index":1
				},
				"metallicFactor":0,
				"roughnessFactor":0.5
			}
		},
		{
			"doubleSided":true,
			"name":"SCENE_LIGHT_GREY",
			"pbrMetallicRoughness":{
				"baseColorTexture":{
					"index":2
				},
				"metallicFactor":0,
				"roughnessFactor":0.5
			}
		},
		{
			"doubleSided":true,
			"emissiveFactor":[
				1,
				0.049461543560028076,
				0.008267334662377834
			],
			"extensions":{
				"KHR_materials_emissive_strength":{
					"emissiveStrength":5
				}
			},
			"name":"EMISSION_RED",
			"pbrMetallicRoughness":{
				"baseColorFactor":[
					0,
					0,
					0,
					1
				],
				"metallicFactor":0,
				"roughnessFactor":0.5
			}
		},
		{
			"doubleSided":true,
			"emissiveFactor":[
				0.0790940374135971,
				0.09050525724887848,
				1
			],
			"extensions":{
				"KHR_materials_emissive_strength":{
					"emissiveStrength":5
				}
			},
			"name":"EMISSION_BLUE",
			"pbrMetallicRoughness":{
				"baseColorFactor":[
					0,
					0,
					0,
					1
				],
				"metallicFactor":0,
				"roughnessFactor":0.5
			}
		},
		{
			"doubleSided":true,
			"name":"BASE_BLACK",
			"pbrMetallicRoughness":{
				"baseColorFactor":[
					0.014443738386034966,
					0.014443852007389069,
					0.014443843625485897,
					1
				],
				"metallicFactor":0,
				"roughnessFactor":0.8999999761581421
			}
		},
		{
			"doubleSided":true,
			"emissiveFactor":[
				0.005863544026927336,
				1,
				0.005420147585155809
			],
			"extensions":{
				"KHR_materials_emissive_strength":{
					"emissiveStrength":9.559733271598816
				}
			},
			"name":"BASE_GREEN",
			"pbrMetallicRoughness":{
				"baseColorFactor":[
					0,
					0,
					0,
					1
				],
				"metallicFactor":0,
				"roughnessFactor":0.5
			}
		},
		{
			"doubleSided":true,
			"name":"BASE_WHITE",
			"pbrMetallicRoughness":{
				"metallicFactor":0,
				"roughnessFactor":0.8999999761581421
			}
		},
		{
			"doubleSided":true,
			"name":"BASE_BLACK.006",
			"pbrMetallicRoughness":{
				"baseColorFactor":[
					0.014443738386034966,
					0.014443852007389069,
					0.014443843625485897,
					1
				],
				"metallicFactor":0.10000000149011612,
				"roughnessFactor":0.8999999761581421
			}
		},
		{
			"doubleSided":true,
			"emissiveFactor":[
				0.0790940374135971,
				0.09050525724887848,
				1
			],
			"extensions":{
				"KHR_materials_emissive_strength":{
					"emissiveStrength":5
				}
			},
			"name":"EMISSION_BLUE.006",
			"pbrMetallicRoughness":{
				"baseColorFactor":[
					0,
					0,
					0,
					1
				],
				"metallicFactor":0,
				"roughnessFactor":0.5
			}
		},
		{
			"doubleSided":true,
			"emissiveFactor":[
				1,
				0.049461543560028076,
				0.008267334662377834
			],
			"extensions":{
				"KHR_materials_emissive_strength":{
					"emissiveStrength":5
				}
			},
			"name":"EMISSION_RED.004",
			"pbrMetallicRoughness":{
				"baseColorFactor":[
					0,
					0,
					0,
					1
				],
				"metallicFactor":0,
				"roughnessFactor":0.5
			}
		}
	],
	"meshes":[
		{
			"name":"SolidPart-326 (Solid).001",
			"primitives":[
				{
					"attributes":{
						"POSITION":0,
						"NORMAL":1,
						"TEXCOORD_0":2,
						"TEXCOORD_1":3
					},
					"indices":4,
					"material":0
				},
				{
					"attributes":{
						"POSITION":5,
						"NORMAL":6,
						"TEXCOORD_0":7,
						"TEXCOORD_1":8
					},
					"indices":9,
					"material":1
				},
				{
					"attributes":{
						"POSITION":10,
						"NORMAL":11,
						"TEXCOORD_0":12,
						"TEXCOORD_1":13
					},
					"indices":14,
					"material":2
				},
				{
					"attributes":{
						"POSITION":15,
						"NORMAL":16,
						"TEXCOORD_0":17,
						"TEXCOORD_1":18
					},
					"indices":19,
					"material":3
				},
				{
					"attributes":{
						"POSITION":20,
						"NORMAL":21,
						"TEXCOORD_0":22,
						"TEXCOORD_1":23
					},
					"indices":24,
					"material":4
				},
				{
					"attributes":{
						"POSITION":25,
						"NORMAL":26,
						"TEXCOORD_0":27,
						"TEXCOORD_1":28
					},
					"indices":29,
					"material":5
				}
			]
		},
		{
			"name":"0009_1_18.003",
			"primitives":[
				{
					"attributes":{
						"POSITION":30,
						"NORMAL":31
					},
					"indices":32,
					"material":5
				},
				{
					"attributes":{
						"POSITION":33,
						"NORMAL":34
					},
					"indices":35,
					"material":6
				}
			]
		},
		{
			"name":"0010_1.001",
			"primitives":[
				{
					"attributes":{
						"POSITION":36,
						"NORMAL":37
					},
					"indices":38,
					"material":5
				},
				{
					"attributes":{
						"POSITION":39,
						"NORMAL":40
					},
					"indices":41,
					"material":3
				},
				{
					"attributes":{
						"POSITION":42,
						"NORMAL":43
					},
					"indices":44,
					"material":6
				},
				{
					"attributes":{
						"POSITION":45,
						"NORMAL":46
					},
					"indices":47,
					"material":7
				},
				{
					"attributes":{
						"POSITION":48,
						"NORMAL":49
					},
					"indices":50,
					"material":4
				}
			]
		},
		{
			"name":"ENERGY.006",
			"primitives":[
				{
					"attributes":{
						"POSITION":51,
						"NORMAL":52,
						"TEXCOORD_0":53
					},
					"indices":54,
					"material":8
				},
				{
					"attributes":{
						"POSITION":55,
						"NORMAL":56,
						"TEXCOORD_0":57
					},
					"indices":58,
					"material":9
				}
			]
		},
		{
			"name":"ENERGY.002",
			"primitives":[
				{
					"attributes":{
						"POSITION":59,
						"NORMAL":60,
						"TEXCOORD_0":61
					},
					"indices":54,
					"material":8
				},
				{
					"attributes":{
						"POSITION":62,
						"NORMAL":63,
						"TEXCOORD_0":64
					},
					"indices":58,
					"material":10
				}
			]
		}
	],
	"textures":[
		{
			"sampler":0,
			"source":0
		},
		{
			"sampler":0,
			"source":0
		},
		{
			"sampler":0,
			"source":0
		}
	],
	"images":[
		{
			"mimeType":"image/png",
			"name":"arena_color",
			"uri":"arena_color.png"
		}
	],
	"accessors":[
		{
			"bufferView":0,
			"componentType":5126,
			"count":8842,
			"max":[
				14.524999618530273,
				0.9005004167556763,
				8.02500057220459
			],
			"min":[
				-14.524999618530273,
				-0.19999992847442627,
				-8.02500057220459
			],
			"type":"VEC3"
		},
		{
			"bufferView":1,
			"componentType":5126,
			"count":8842,
			"type":"VEC3"
		},
		{
			"bufferView":2,
			"componentType":5126,
			"count":8842,
			"type":"VEC2"
		},
		{
			"bufferView":3,
			"componentType":5126,
			"count":8842,
			"type":"VEC2"
		},
		{
			"bufferView":4,
			"componentType":5123,
			"count":12699,
			"type":"SCALAR"
		},
		{
			"bufferView":5,
			"componentType":5126,
			"count":16166,
			"max":[
				13.209709167480469,
				0.5713438391685486,
				7.430001258850098
			],
			"min":[
				-13.249710083007812,
				-0.0007998943328857422,
				-7.469999313354492
			],
			"type":"VEC3"
		},
		{
			"bufferView":6,
			"componentType":5126,
			"count":16166,
			"type":"VEC3"
		},
		{
			"bufferView":7,
			"componentType":5126,
			"count":16166,
			"type":"VEC2"
		},
		{
			"bufferView":8,
			"componentType":5126,
			"count":16166,
			"type":"VEC2"
		},
		{
			"bufferView":9,
			"componentType":5123,
			"count":32874,
			"type":"SCALAR"
		},
		{
			"bufferView":10,
			"componentType":5126,
			"count":6725,
			"max":[
				14.555000305175781,
				1.8835186958312988,
				7.480001449584961
			],
			"min":[
				-14.594999313354492,
				-0.00299990177154541,
				-7.5199995040893555
			],
			"type":"VEC3"
		},
		{
			"bufferView":11,
			"componentType":5126,
			"count":6725,
			"type":"VEC3"
		},
		{
			"bufferView":12,
			"componentType":5126,
			"count":6725,
			"type":"VEC2"
		},
		{
			"bufferView":13,
			"componentType":5126,
			"count":6725,
			"type":"VEC2"
		},
		{
			"bufferView":14,
			"componentType":5123,
			"count":11226,
			"type":"SCALAR"
		},
		{
			"bufferView":15,
			"componentType":5126,
			"count":1361,
			"max":[
				0.7260080575942993,
				1.8100576400756836,
				7.420001029968262
			],
			"min":[
				-14.020000457763672,
				-0.0007998943328857422,
				-7.459999084472656
			],
			"type":"VEC3"
		},
		{
			"bufferView":16,
			"componentType":5126,
			"count":1361,
			"type":"VEC3"
		},
		{
			"bufferView":17,
			"componentType":5126,
			"count":1361,
			"type":"VEC2"
		},
		{
			"bufferView":18,
			"componentType":5126,
			"count":1361,
			"type":"VEC2"
		},
		{
			"bufferView":19,
			"componentType":5123,
			"count":2196,
			"type":"SCALAR"
		},
		{
			"bufferView":20,
			"componentType":5126,
			"count":1318,
			"max":[
				13.979999542236328,
				1.810056209564209,
				7.420001029968262
			],
			"min":[
				-0.26352638006210327,
				-0.0007998943328857422,
				-7.459999084472656
			],
			"type":"VEC3"
		},
		{
			"bufferView":21,
			"componentType":5126,
			"count":1318,
			"type":"VEC3"
		},
		{
			"bufferView":22,
			"componentType":5126,
			"count":1318,
			"type":"VEC2"
		},
		{
			"bufferView":23,
			"componentType":5126,
			"count":1318,
			"type":"VEC2"
		},
		{
			"bufferView":24,
			"componentType":5123,
			"count":2121,
			"type":"SCALAR"
		},
		{
			"bufferView":25,
			"componentType":5126,
			"count":5562,
			"max":[
				1.5125120878219604,
				2.8650734424591064,
				1.514184594154358
			],
			"min":[
				-1.5525439977645874,
				0.22592487931251526,
				-1.5577311515808105
			],
			"type":"VEC3"
		},
		{
			"bufferView":26,
			"componentType":5126,
			"count":5562,
			"type":"VEC3"
		},
		{
			"bufferView":27,
			"componentType":5126,
			"count":5562,
			"type":"VEC2"
		},
		{
			"bufferView":28,
			"componentType":5126,
			"count":5562,
			"type":"VEC2"
		},
		{
			"bufferView":29,
			"componentType":5123,
			"count":5562,
			"type":"SCALAR"
		},
		{
			"bufferView":30,
			"componentType":5126,
			"count":14737,
			"max":[
				3.3369944095611572,
				1.8702753782272339,
				4.118105888366699
			],
			"min":[
				-3.3769443035125732,
				0.3996524214744568,
				-4.1549506187438965
			],
			"type":"VEC3"
		},
		{
			"bufferView":31,
			"componentType":5126,
			"count":14737,
			"type":"VEC3"
		},
		{
			"bufferView":32,
			"componentType":5123,
			"count":15519,
			"type":"SCALAR"
		},
		{
			"bufferView":33,
			"componentType":5126,
			"count":14,
			"max":[
				2.8934903144836426,
				1.7733380794525146,
				3.8732025623321533
			],
			"min":[
				-2.933107852935791,
				1.6951746940612793,
				-3.908717632293701
			],
			"type":"VEC3"
		},
		{
			"bufferView":34,
			"componentType":5126,
			"count":14,
			"type":"VEC3"
		},
		{
			"bufferView":35,
			"componentType":5123,
			"count":27,
			"type":"SCALAR"
		},
		{
			"bufferView":36,
			"componentType":5126,
			"count":93666,
			"max":[
				0.9531739950180054,
				12.322306632995605,
				0.00011630674271145836
			],
			"min":[
				-0.9518724679946899,
				-12.323060035705566,
				-1.3774528503417969
			],
			"type":"VEC3"
		},
		{
			"bufferView":37,
			"componentType":5126,
			"count":93666,
			"type":"VEC3"
		},
		{
			"bufferView":38,
			"componentType":5125,
			"count":100011,
			"type":"SCALAR"
		},
		{
			"bufferView":39,
			"componentType":5126,
			"count":343,
			"max":[
				0.34678730368614197,
				-11.34206485748291,
				-0.576237142086029
			],
			"min":[
				-0.374159038066864,
				-11.482043266296387,
				-1.0615065097808838
			],
			"type":"VEC3"
		},
		{
			"bufferView":40,
			"componentType":5126,
			"count":343,
			"type":"VEC3"
		},
		{
			"bufferView":41,
			"componentType":5123,
			"count":357,
			"type":"SCALAR"
		},
		{
			"bufferView":42,
			"componentType":5126,
			"count":19,
			"max":[
				0.055908992886543274,
				11.495208740234375,
				-1.2071272134780884
			],
			"min":[
				-0.04469157010316849,
				-11.493603706359863,
				-1.2697709798812866
			],
			"type":"VEC3"
		},
		{
			"bufferView":43,
			"componentType":5126,
			"count":19,
			"type":"VEC3"
		},
		{
			"bufferView":44,
			"componentType":5123,
			"count":48,
			"type":"SCALAR"
		},
		{
			"bufferView":45,
			"componentType":5126,
			"count":507,
			"max":[
				0.503903865814209,
				11.693814277648926,
				-1.1553367376327515
			],
			"min":[
				-0.5035256147384644,
				-11.693351745605469,
				-1.3267066478729248
			],
			"type":"VEC3"
		},
		{
			"bufferView":46,
			"componentType":5126,
			"count":507,
			"type":"VEC3"
		},
		{
			"bufferView":47,
			"componentType":5123,
			"count":840,
			"type":"SCALAR"
		},
		{
			"bufferView":48,
			"componentType":5126,
			"count":317,
			"max":[
				0.3751690983772278,
				11.59736156463623,
				-0.5799750685691833
			],
			"min":[
				-0.3480125665664673,
				11.348052024841309,
				-1.3328527212142944
			],
			"type":"VEC3"
		},
		{
			"bufferView":49,
			"componentType":5126,
			"count":317,
			"type":"VEC3"
		},
		{
			"bufferView":50,
			"componentType":5123,
			"count":333,
			"type":"SCALAR"
		},
		{
			"bufferView":51,
			"componentType":5126,
			"count":24524,
			"max":[
				0.47806698083877563,
				0.8965347409248352,
				0.5046164393424988
			],
			"min":[
				-0.777681291103363,
				-0.8415799140930176,
				-0.7513116002082825
			],
			"type":"VEC3"
		},
		{
			"bufferView":52,
			"componentType":5126,
			"count":24524,
			"type":"VEC3"
		},
		{
			"bufferView":53,
			"componentType":5126,
			"count":24524,
			"type":"VEC2"
		},
		{
			"bufferView":54,
			"componentType":5123,
			"count":24744,
			"type":"SCALAR"
		},
		{
			"bufferView":55,
			"componentType":5126,
			"count":19051,
			"max":[
				0.48248547315597534,
				0.8828959465026855,
				0.5126383304595947
			],
			"min":[
				-0.7369457483291626,
				-0.827410101890564,
				-0.7067764401435852
			],
			"type":"VEC3"
		},
		{
			"bufferView":56,
			"componentType":5126,
			"count":19051,
			"type":"VEC3"
		},
		{
			"bufferView":57,
			"componentType":5126,
			"count":19051,
			"type":"VEC2"
		},
		{
			"bufferView":58,
			"componentType":5123,
			"count":21240,
			"type":"SCALAR"
		},
		{
			"bufferView":59,
			"componentType":5126,
			"count":24524,
			"max":[
				0.47806698083877563,
				0.8965347409248352,
				0.5046164393424988
			],
			"min":[
				-0.777681291103363,
				-0.8415799140930176,
				-0.7513116002082825
			],
			"type":"VEC3"
		},
		{
			"bufferView":60,
			"componentType":5126,
			"count":24524,
			"type":"VEC3"
		},
		{
			"bufferView":61,
			"componentType":5126,
			"count":24524,
			"type":"VEC2"
		},
		{
			"bufferView":62,
			"componentType":5126,
			"count":19051,
			"max":[
				0.48248547315597534,
				0.8828959465026855,
				0.5126383304595947
			],
			"min":[
				-0.7369457483291626,
				-0.827410101890564,
				-0.7067764401435852
			],
			"type":"VEC3"
		},
		{
			"bufferView":63,
			"componentType":5126,
			"count":19051,
			"type":"VEC3"
		},
		{
			"bufferView":64,
			"componentType":5126,
			"count":19051,
			"type":"VEC2"
		}
	],
	"bufferViews":[
		{
			"buffer":0,
			"byteLength":106104,
			"byteOffset":0,
			"target":34962
		},
		{
			"buffer":0,
			"byteLength":106104,
			"byteOffset":106104,
			"target":34962
		},
		{
			"buffer":0,
			"byteLength":70736,
			"byteOffset":212208,
			"target":34962
		},
		{
			"buffer":0,
			"byteLength":70736,
			"byteOffset":282944,
			"target":34962
		},
		{
			"buffer":0,
			"byteLength":25398,
			"byteOffset":353680,
			"target":34963
		},
		{
			"buffer":0,
			"byteLength":193992,
			"byteOffset":379080,
			"target":34962
		},
		{
			"buffer":0,
			"byteLength":193992,
			"byteOffset":573072,
			"target":34962
		},
		{
			"buffer":0,
			"byteLength":129328,
			"byteOffset":767064,
			"target":34962
		},
		{
			"buffer":0,
			"byteLength":129328,
			"byteOffset":896392,
			"target":34962
		},
		{
			"buffer":0,
			"byteLength":65748,
			"byteOffset":1025720,
			"target":34963
		},
		{
			"buffer":0,
			"byteLength":80700,
			"byteOffset":1091468,
			"target":34962
		},
		{
			"buffer":0,
			"byteLength":80700,
			"byteOffset":1172168,
			"target":34962
		},
		{
			"buffer":0,
			"byteLength":53800,
			"byteOffset":1252868,
			"target":34962
		},
		{
			"buffer":0,
			"byteLength":53800,
			"byteOffset":1306668,
			"target":34962
		},
		{
			"buffer":0,
			"byteLength":22452,
			"byteOffset":1360468,
			"target":34963
		},
		{
			"buffer":0,
			"byteLength":16332,
			"byteOffset":1382920,
			"target":34962
		},
		{
			"buffer":0,
			"byteLength":16332,
			"byteOffset":1399252,
			"target":34962
		},
		{
			"buffer":0,
			"byteLength":10888,
			"byteOffset":1415584,
			"target":34962
		},
		{
			"buffer":0,
			"byteLength":10888,
			"byteOffset":1426472,
			"target":34962
		},
		{
			"buffer":0,
			"byteLength":4392,
			"byteOffset":1437360,
			"target":34963
		},
		{
			"buffer":0,
			"byteLength":15816,
			"byteOffset":1441752,
			"target":34962
		},
		{
			"buffer":0,
			"byteLength":15816,
			"byteOffset":1457568,
			"target":34962
		},
		{
			"buffer":0,
			"byteLength":10544,
			"byteOffset":1473384,
			"target":34962
		},
		{
			"buffer":0,
			"byteLength":10544,
			"byteOffset":1483928,
			"target":34962
		},
		{
			"buffer":0,
			"byteLength":4242,
			"byteOffset":1494472,
			"target":34963
		},
		{
			"buffer":0,
			"byteLength":66744,
			"byteOffset":1498716,
			"target":34962
		},
		{
			"buffer":0,
			"byteLength":66744,
			"byteOffset":1565460,
			"target":34962
		},
		{
			"buffer":0,
			"byteLength":44496,
			"byteOffset":1632204,
			"target":34962
		},
		{
			"buffer":0,
			"byteLength":44496,
			"byteOffset":1676700,
			"target":34962
		},
		{
			"buffer":0,
			"byteLength":11124,
			"byteOffset":1721196,
			"target":34963
		},
		{
			"buffer":0,
			"byteLength":176844,
			"byteOffset":1732320,
			"target":34962
		},
		{
			"buffer":0,
			"byteLength":176844,
			"byteOffset":1909164,
			"target":34962
		},
		{
			"buffer":0,
			"byteLength":31038,
			"byteOffset":2086008,
			"target":34963
		},
		{
			"buffer":0,
			"byteLength":168,
			"byteOffset":2117048,
			"target":34962
		},
		{
			"buffer":0,
			"byteLength":168,
			"byteOffset":2117216,
			"target":34962
		},
		{
			"buffer":0,
			"byteLength":54,
			"byteOffset":2117384,
			"target":34963
		},
		{
			"buffer":0,
			"byteLength":1123992,
			"byteOffset":2117440,
			"target":34962
		},
		{
			"buffer":0,
			"byteLength":1123992,
			"byteOffset":3241432,
			"target":34962
		},
		{
			"buffer":0,
			"byteLength":400044,
			"byteOffset":4365424,
			"target":34963
		},
		{
			"buffer":0,
			"byteLength":4116,
			"byteOffset":4765468,
			"target":34962
		},
		{
			"buffer":0,
			"byteLength":4116,
			"byteOffset":4769584,
			"target":34962
		},
		{
			"buffer":0,
			"byteLength":714,
			"byteOffset":4773700,
			"target":34963
		},
		{
			"buffer":0,
			"byteLength":228,
			"byteOffset":4774416,
			"target":34962
		},
		{
			"buffer":0,
			"byteLength":228,
			"byteOffset":4774644,
			"target":34962
		},
		{
			"buffer":0,
			"byteLength":96,
			"byteOffset":4774872,
			"target":34963
		},
		{
			"buffer":0,
			"byteLength":6084,
			"byteOffset":4774968,
			"target":34962
		},
		{
			"buffer":0,
			"byteLength":6084,
			"byteOffset":4781052,
			"target":34962
		},
		{
			"buffer":0,
			"byteLength":1680,
			"byteOffset":4787136,
			"target":34963
		},
		{
			"buffer":0,
			"byteLength":3804,
			"byteOffset":4788816,
			"target":34962
		},
		{
			"buffer":0,
			"byteLength":3804,
			"byteOffset":4792620,
			"target":34962
		},
		{
			"buffer":0,
			"byteLength":666,
			"byteOffset":4796424,
			"target":34963
		},
		{
			"buffer":0,
			"byteLength":294288,
			"byteOffset":4797092,
			"target":34962
		},
		{
			"buffer":0,
			"byteLength":294288,
			"byteOffset":5091380,
			"target":34962
		},
		{
			"buffer":0,
			"byteLength":196192,
			"byteOffset":5385668,
			"target":34962
		},
		{
			"buffer":0,
			"byteLength":49488,
			"byteOffset":5581860,
			"target":34963
		},
		{
			"buffer":0,
			"byteLength":228612,
			"byteOffset":5631348,
			"target":34962
		},
		{
			"buffer":0,
			"byteLength":228612,
			"byteOffset":5859960,
			"target":34962
		},
		{
			"buffer":0,
			"byteLength":152408,
			"byteOffset":6088572,
			"target":34962
		},
		{
			"buffer":0,
			"byteLength":42480,
			"byteOffset":6240980,
			"target":34963
		},
		{
			"buffer":0,
			"byteLength":294288,
			"byteOffset":6283460,
			"target":34962
		},
		{
			"buffer":0,
			"byteLength":294288,
			"byteOffset":6577748,
			"target":34962
		},
		{
			"buffer":0,
			"byteLength":196192,
			"byteOffset":6872036,
			"target":34962
		},
		{
			"buffer":0,
			"byteLength":228612,
			"byteOffset":7068228,
			"target":34962
		},
		{
			"buffer":0,
			"byteLength":228612,
			"byteOffset":7296840,
			"target":34962
		},
		{
			"buffer":0,
			"byteLength":152408,
			"byteOffset":7525452,
			"target":34962
		}
	],
	"samplers":[
		{
			"magFilter":9729,
			"minFilter":9987
		}
	],
	"buffers":[
		{
			"byteLength":7677860,
			"uri":"arena_static.bin"
		}
	]
}
