{
	"asset":{
		"generator":"Khronos glTF Blender I/O v4.3.47",
		"version":"2.0"
	},
	"extensionsUsed":[
		"KHR_materials_emissive_strength"
	],
	"scene":0,
	"scenes":[
		{
			"name":"Scene",
			"nodes":[
				0,
				1,
				2,
				3
			]
		}
	],
	"nodes":[
		{
			"mesh":0,
			"name":"outpost"
		},
		{
			"mesh":1,
			"name":"base",
			"rotation":[
				0.5,
				0.5000000596046448,
				-0.5000001192092896,
				0.5
			]
		},
		{
			"mesh":2,
			"name":"ground.002",
			"rotation":[
				-2.1837751774000935e-05,
				0.0001083484385162592,
				0,
				1
			]
		},
		{
			"mesh":3,
			"name":"rune_blue.003",
			"rotation":[
				0,
				-0.3826834559440613,
				0,
				0.9238795638084412
			],
			"translation":[
				0.3737604320049286,
				2.5999996662139893,
				0.3688236474990845
			]
		}
	],
	"animations":[
		{
			"channels":[
				{
					"sampler":0,
					"target":{
						"node":3,
						"path":"translation"
					}
				},
				{
					"sampler":1,
					"target":{
						"node":3,
						"path":"rotation"
					}
				}
			],
			"name":"Animation",
			"samplers":[
				{
					"input":51,
					"interpolation":"LINEAR",
					"output":52
				},
				{
					"input":51,
					"interpolation":"LINEAR",
					"output":53
				}
			]
		}
	],
	"materials":[
		{
			"doubleSided":true,
			"name":"BASE_BLACK",
			"pbrMetallicRoughness":{
				"baseColorFactor":[
					0.014443738386034966,
					0.014443852007389069,
					0.014443843625485897,
					1
				],
				"metallicFactor":0,
				"roughnessFactor":0.8999999761581421
			}
		},
		{
			"doubleSided":true,
			"emissiveFactor":[
				0.005863544026927336,
				1,
				0.005420147585155809
			],
			"extensions":{
				"KHR_materials_emissive_strength":{
					"emissiveStrength":9.559733271598816
				}
			},
			"name":"BASE_GREEN",
			"pbrMetallicRoughness":{
				"baseColorFactor":[
					0,
					0,
					0,
					1
				],
				"metallicFactor":0,
				"roughnessFactor":0.5
			}
		},
		{
			"doubleSided":true,
			"name":"BASE_WHITE",
			"pbrMetallicRoughness":{
				"metallicFactor":0,
				"roughnessFactor":0.8999999761581421
			}
		},
		{
			"doubleSided":true,
			"emissiveFactor":[
				0,
				0.04626076690145653,
				1
			],
			"extensions":{
				"KHR_materials_emissive_strength":{
					"emissiveStrength":4.79320228099823
				}
			},
			"name":"EMISSION_BLUE",
			"pbrMetallicRoughness":{
				"baseColorFactor":[
					0,
					0,
					0,
					1
				],
				"metallicFactor":0,
				"roughnessFactor":0.5
			}
		},
		{
			"doubleSided":true,
			"name":"SCENE_DARK_GREY",
			"pbrMetallicRoughness":{
				"baseColorTexture":{
					"index":0
				},
				"metallicFactor":0
			}
		},
		{
			"doubleSided":true,
			"name":"SCENE_WHITE",
			"pbrMetallicRoughness":{
				"baseColorFactor":[
					0.632710874080658,
					0.632710874080658,
					0.632710874080658,
					1
				],
				"metallicFactor":0,
				"roughnessFactor":0.5
			}
		},
		{
			"doubleSided":true,
			"name":"SCENE_LIGHT_GREY",
			"pbrMetallicRoughness":{
				"baseColorTexture":{
					"index":1
				},
				"metallicFactor":0
			}
		},
		{
			"doubleSided":true,
			"emissiveFactor":[
				0.0790940374135971,
				0.09050525724887848,
				1
			],
			"extensions":{
				"KHR_materials_emissive_strength":{
					"emissiveStrength":5
				}
			},
			"name":"EMISSION_BLUE.006",
			"pbrMetallicRoughness":{
				"baseColorFactor":[
					0,
					0,
					0,
					1
				],
				"metallicFactor":0,
				"roughnessFactor":0.5
			}
		},
		{
			"doubleSided":true,
			"name":"BASE_BLACK.006",
			"pbrMetallicRoughness":{
				"baseColorFactor":[
					0.014443738386034966,
					0.014443852007389069,
					0.014443843625485897,
					1
				],
				"metallicFactor":0.10000000149011612,
				"roughnessFactor":0.8999999761581421
			}
		}
	],
	"meshes":[
		{
			"name":"0009_1_18.003",
			"primitives":[
				{
					"attributes":{
						"POSITION":0,
						"NORMAL":1
					},
					"indices":2,
					"material":0
				},
				{
					"attributes":{
						"POSITION":3,
						"NORMAL":4
					},
					"indices":5,
					"material":1
				}
			]
		},
		{
			"name":"0010_1.001",
			"primitives":[
				{
					"attributes":{
						"POSITION":6,
						"NORMAL":7
					},
					"indices":8,
					"material":0
				},
				{
					"attributes":{
						"POSITION":9,
						"NORMAL":10
					},
					"indices":11,
					"material":1
				},
				{
					"attributes":{
						"POSITION":12,
						"NORMAL":13
					},
					"indices":14,
					"material":2
				},
				{
					"attributes":{
						"POSITION":15,
						"NORMAL":16
					},
					"indices":17,
					"material":3
				}
			]
		},
		{
			"name":"SolidPart-326 (Solid).010",
			"primitives":[
				{
					"attributes":{
						"POSITION":18,
						"NORMAL":19,
						"TEXCOORD_0":20,
						"TEXCOORD_1":21
					},
					"indices":22,
					"material":4
				},
				{
					"attributes":{
						"POSITION":23,
						"NORMAL":24,
						"TEXCOORD_0":25,
						"TEXCOORD_1":26
					},
					"indices":27,
					"material":5
				},
				{
					"attributes":{
						"POSITION":28,
						"NORMAL":29,
						"TEXCOORD_0":30,
						"TEXCOORD_1":31
					},
					"indices":32,
					"material":6
				},
				{
					"attributes":{
						"POSITION":33,
						"NORMAL":34,
						"TEXCOORD_0":35,
						"TEXCOORD_1":36
					},
					"indices":37,
					"material":3
				},
				{
					"attributes":{
						"POSITION":38,
						"NORMAL":39,
						"TEXCOORD_0":40,
						"TEXCOORD_1":41
					},
					"indices":42,
					"material":0
				}
			]
		},
		{
			"name":"ENERGY.007",
			"primitives":[
				{
					"attributes":{
						"POSITION":43,
						"NORMAL":44,
						"TEXCOORD_0":45
					},
					"indices":46,
					"material":7
				},
				{
					"attributes":{
						"POSITION":47,
						"NORMAL":48,
						"TEXCOORD_0":49
					},
					"indices":50,
					"material":8
				}
			]
		}
	],
	"textures":[
		{
			"sampler":0,
			"source":0
		},
		{
			"sampler":0,
			"source":0
		}
	],
	"images":[
		{
			"mimeType":"image/png",
			"name":"arena_new",
			"uri":"arena_new.png"
		}
	],
	"accessors":[
		{
			"bufferView":0,
			"componentType":5126,
			"count":8391,
			"max":[
				3.3369944095611572,
				1.8688104152679443,
				-3.5748085975646973
			],
			"min":[
				2.80928111076355,
				0.3999718725681305,
				-4.134951591491699
			],
			"type":"VEC3"
		},
		{
			"bufferView":1,
			"componentType":5126,
			"count":8391,
			"type":"VEC3"
		},
		{
			"bufferView":2,
			"componentType":5123,
			"count":8925,
			"type":"SCALAR"
		},
		{
			"bufferView":3,
			"componentType":5126,
			"count":8,
			"max":[
				2.893101692199707,
				1.7615162134170532,
				-3.8253703117370605
			],
			"min":[
				2.879084587097168,
				1.7066513299942017,
				-3.888718605041504
			],
			"type":"VEC3"
		},
		{
			"bufferView":4,
			"componentType":5126,
			"count":8,
			"type":"VEC3"
		},
		{
			"bufferView":5,
			"componentType":5123,
			"count":18,
			"type":"SCALAR"
		},
		{
			"bufferView":6,
			"componentType":5126,
			"count":14354,
			"max":[
				0.9335713386535645,
				12.322697639465332,
				-4.6207045670598745e-05
			],
			"min":[
				-0.9445260167121887,
				10.715849876403809,
				-1.3778786659240723
			],
			"type":"VEC3"
		},
		{
			"bufferView":7,
			"componentType":5126,
			"count":14354,
			"type":"VEC3"
		},
		{
			"bufferView":8,
			"componentType":5123,
			"count":15057,
			"type":"SCALAR"
		},
		{
			"bufferView":9,
			"componentType":5126,
			"count":7,
			"max":[
				0.037687998265028,
				11.47459602355957,
				-1.2130496501922607
			],
			"min":[
				-0.04764195531606674,
				11.474151611328125,
				-1.2876516580581665
			],
			"type":"VEC3"
		},
		{
			"bufferView":10,
			"componentType":5126,
			"count":7,
			"type":"VEC3"
		},
		{
			"bufferView":11,
			"componentType":5123,
			"count":18,
			"type":"SCALAR"
		},
		{
			"bufferView":12,
			"componentType":5126,
			"count":44,
			"max":[
				0.4815864562988281,
				11.70521354675293,
				-1.157193899154663
			],
			"min":[
				-0.418409526348114,
				11.503478050231934,
				-1.3271965980529785
			],
			"type":"VEC3"
		},
		{
			"bufferView":13,
			"componentType":5126,
			"count":44,
			"type":"VEC3"
		},
		{
			"bufferView":14,
			"componentType":5123,
			"count":60,
			"type":"SCALAR"
		},
		{
			"bufferView":15,
			"componentType":5126,
			"count":87,
			"max":[
				0.36371105909347534,
				11.477474212646484,
				-0.5805647969245911
			],
			"min":[
				-0.37202873826026917,
				11.350693702697754,
				-1.0644351243972778
			],
			"type":"VEC3"
		},
		{
			"bufferView":16,
			"componentType":5126,
			"count":87,
			"type":"VEC3"
		},
		{
			"bufferView":17,
			"componentType":5123,
			"count":87,
			"type":"SCALAR"
		},
		{
			"bufferView":18,
			"componentType":5126,
			"count":2031,
			"max":[
				14.524999618530273,
				0.9005004167556763,
				8.045000076293945
			],
			"min":[
				-0.0018476438708603382,
				-0.19999995827674866,
				-8.005001068115234
			],
			"type":"VEC3"
		},
		{
			"bufferView":19,
			"componentType":5126,
			"count":2031,
			"type":"VEC3"
		},
		{
			"bufferView":20,
			"componentType":5126,
			"count":2031,
			"type":"VEC2"
		},
		{
			"bufferView":21,
			"componentType":5126,
			"count":2031,
			"type":"VEC2"
		},
		{
			"bufferView":22,
			"componentType":5123,
			"count":2346,
			"type":"SCALAR"
		},
		{
			"bufferView":23,
			"componentType":5126,
			"count":3652,
			"max":[
				13.209972381591797,
				0.40616631507873535,
				7.320644378662109
			],
			"min":[
				0.35491886734962463,
				0.005221023224294186,
				-7.46768856048584
			],
			"type":"VEC3"
		},
		{
			"bufferView":24,
			"componentType":5126,
			"count":3652,
			"type":"VEC3"
		},
		{
			"bufferView":25,
			"componentType":5126,
			"count":3652,
			"type":"VEC2"
		},
		{
			"bufferView":26,
			"componentType":5126,
			"count":3652,
			"type":"VEC2"
		},
		{
			"bufferView":27,
			"componentType":5123,
			"count":10380,
			"type":"SCALAR"
		},
		{
			"bufferView":28,
			"componentType":5126,
			"count":3111,
			"max":[
				14.555000305175781,
				1.8835172653198242,
				7.500000476837158
			],
			"min":[
				-6.316535632322484e-07,
				-0.002999931573867798,
				-7.500000476837158
			],
			"type":"VEC3"
		},
		{
			"bufferView":29,
			"componentType":5126,
			"count":3111,
			"type":"VEC3"
		},
		{
			"bufferView":30,
			"componentType":5126,
			"count":3111,
			"type":"VEC2"
		},
		{
			"bufferView":31,
			"componentType":5126,
			"count":3111,
			"type":"VEC2"
		},
		{
			"bufferView":32,
			"componentType":5123,
			"count":4383,
			"type":"SCALAR"
		},
		{
			"bufferView":33,
			"componentType":5126,
			"count":1181,
			"max":[
				13.979999542236328,
				1.8149131536483765,
				7.440000057220459
			],
			"min":[
				1.4413648843765259,
				0.0042000762186944485,
				-7.440000057220459
			],
			"type":"VEC3"
		},
		{
			"bufferView":34,
			"componentType":5126,
			"count":1181,
			"type":"VEC3"
		},
		{
			"bufferView":35,
			"componentType":5126,
			"count":1181,
			"type":"VEC2"
		},
		{
			"bufferView":36,
			"componentType":5126,
			"count":1181,
			"type":"VEC2"
		},
		{
			"bufferView":37,
			"componentType":5123,
			"count":1644,
			"type":"SCALAR"
		},
		{
			"bufferView":38,
			"componentType":5126,
			"count":2755,
			"max":[
				1.512511968612671,
				2.8625094890594482,
				0.2962908148765564
			],
			"min":[
				-0.0002536923566367477,
				0.22592484951019287,
				-1.5377321243286133
			],
			"type":"VEC3"
		},
		{
			"bufferView":39,
			"componentType":5126,
			"count":2755,
			"type":"VEC3"
		},
		{
			"bufferView":40,
			"componentType":5126,
			"count":2755,
			"type":"VEC2"
		},
		{
			"bufferView":41,
			"componentType":5126,
			"count":2755,
			"type":"VEC2"
		},
		{
			"bufferView":42,
			"componentType":5123,
			"count":2793,
			"type":"SCALAR"
		},
		{
			"bufferView":43,
			"componentType":5126,
			"count":1170,
			"max":[
				-0.16767185926437378,
				0.8828939199447632,
				0.8776912689208984
			],
			"min":[
				-0.16767185926437378,
				-0.8251015543937683,
				-0.838726818561554
			],
			"type":"VEC3"
		},
		{
			"bufferView":44,
			"componentType":5126,
			"count":1170,
			"type":"VEC3"
		},
		{
			"bufferView":45,
			"componentType":5126,
			"count":1170,
			"type":"VEC2"
		},
		{
			"bufferView":46,
			"componentType":5123,
			"count":2550,
			"type":"SCALAR"
		},
		{
			"bufferView":47,
			"componentType":5126,
			"count":8722,
			"max":[
				-0.0018587075173854828,
				0.8962833881378174,
				0.8930037617683411
			],
			"min":[
				-0.23473267257213593,
				-0.842716634273529,
				-0.8528639078140259
			],
			"type":"VEC3"
		},
		{
			"bufferView":48,
			"componentType":5126,
			"count":8722,
			"type":"VEC3"
		},
		{
			"bufferView":49,
			"componentType":5126,
			"count":8722,
			"type":"VEC2"
		},
		{
			"bufferView":50,
			"componentType":5123,
			"count":8790,
			"type":"SCALAR"
		},
		{
			"bufferView":51,
			"componentType":5126,
			"count":145,
			"max":[
				6.041666666666667
			],
			"min":[
				0.041666666666666664
			],
			"type":"SCALAR"
		},
		{
			"bufferView":52,
			"componentType":5126,
			"count":145,
			"type":"VEC3"
		},
		{
			"bufferView":53,
			"componentType":5126,
			"count":145,
			"type":"VEC4"
		}
	],
	"bufferViews":[
		{
			"buffer":0,
			"byteLength":100692,
			"byteOffset":0,
			"target":34962
		},
		{
			"buffer":0,
			"byteLength":100692,
			"byteOffset":100692,
			"target":34962
		},
		{
			"buffer":0,
			"byteLength":17850,
			"byteOffset":201384,
			"target":34963
		},
		{
			"buffer":0,
			"byteLength":96,
			"byteOffset":219236,
			"target":34962
		},
		{
			"buffer":0,
			"byteLength":96,
			"byteOffset":219332,
			"target":34962
		},
		{
			"buffer":0,
			"byteLength":36,
			"byteOffset":219428,
			"target":34963
		},
		{
			"buffer":0,
			"byteLength":172248,
			"byteOffset":219464,
			"target":34962
		},
		{
			"buffer":0,
			"byteLength":172248,
			"byteOffset":391712,
			"target":34962
		},
		{
			"buffer":0,
			"byteLength":30114,
			"byteOffset":563960,
			"target":34963
		},
		{
			"buffer":0,
			"byteLength":84,
			"byteOffset":594076,
			"target":34962
		},
		{
			"buffer":0,
			"byteLength":84,
			"byteOffset":594160,
			"target":34962
		},
		{
			"buffer":0,
			"byteLength":36,
			"byteOffset":594244,
			"target":34963
		},
		{
			"buffer":0,
			"byteLength":528,
			"byteOffset":594280,
			"target":34962
		},
		{
			"buffer":0,
			"byteLength":528,
			"byteOffset":594808,
			"target":34962
		},
		{
			"buffer":0,
			"byteLength":120,
			"byteOffset":595336,
			"target":34963
		},
		{
			"buffer":0,
			"byteLength":1044,
			"byteOffset":595456,
			"target":34962
		},
		{
			"buffer":0,
			"byteLength":1044,
			"byteOffset":596500,
			"target":34962
		},
		{
			"buffer":0,
			"byteLength":174,
			"byteOffset":597544,
			"target":34963
		},
		{
			"buffer":0,
			"byteLength":24372,
			"byteOffset":597720,
			"target":34962
		},
		{
			"buffer":0,
			"byteLength":24372,
			"byteOffset":622092,
			"target":34962
		},
		{
			"buffer":0,
			"byteLength":16248,
			"byteOffset":646464,
			"target":34962
		},
		{
			"buffer":0,
			"byteLength":16248,
			"byteOffset":662712,
			"target":34962
		},
		{
			"buffer":0,
			"byteLength":4692,
			"byteOffset":678960,
			"target":34963
		},
		{
			"buffer":0,
			"byteLength":43824,
			"byteOffset":683652,
			"target":34962
		},
		{
			"buffer":0,
			"byteLength":43824,
			"byteOffset":727476,
			"target":34962
		},
		{
			"buffer":0,
			"byteLength":29216,
			"byteOffset":771300,
			"target":34962
		},
		{
			"buffer":0,
			"byteLength":29216,
			"byteOffset":800516,
			"target":34962
		},
		{
			"buffer":0,
			"byteLength":20760,
			"byteOffset":829732,
			"target":34963
		},
		{
			"buffer":0,
			"byteLength":37332,
			"byteOffset":850492,
			"target":34962
		},
		{
			"buffer":0,
			"byteLength":37332,
			"byteOffset":887824,
			"target":34962
		},
		{
			"buffer":0,
			"byteLength":24888,
			"byteOffset":925156,
			"target":34962
		},
		{
			"buffer":0,
			"byteLength":24888,
			"byteOffset":950044,
			"target":34962
		},
		{
			"buffer":0,
			"byteLength":8766,
			"byteOffset":974932,
			"target":34963
		},
		{
			"buffer":0,
			"byteLength":14172,
			"byteOffset":983700,
			"target":34962
		},
		{
			"buffer":0,
			"byteLength":14172,
			"byteOffset":997872,
			"target":34962
		},
		{
			"buffer":0,
			"byteLength":9448,
			"byteOffset":1012044,
			"target":34962
		},
		{
			"buffer":0,
			"byteLength":9448,
			"byteOffset":1021492,
			"target":34962
		},
		{
			"buffer":0,
			"byteLength":3288,
			"byteOffset":1030940,
			"target":34963
		},
		{
			"buffer":0,
			"byteLength":33060,
			"byteOffset":1034228,
			"target":34962
		},
		{
			"buffer":0,
			"byteLength":33060,
			"byteOffset":1067288,
			"target":34962
		},
		{
			"buffer":0,
			"byteLength":22040,
			"byteOffset":1100348,
			"target":34962
		},
		{
			"buffer":0,
			"byteLength":22040,
			"byteOffset":1122388,
			"target":34962
		},
		{
			"buffer":0,
			"byteLength":5586,
			"byteOffset":1144428,
			"target":34963
		},
		{
			"buffer":0,
			"byteLength":14040,
			"byteOffset":1150016,
			"target":34962
		},
		{
			"buffer":0,
			"byteLength":14040,
			"byteOffset":1164056,
			"target":34962
		},
		{
			"buffer":0,
			"byteLength":9360,
			"byteOffset":1178096,
			"target":34962
		},
		{
			"buffer":0,
			"byteLength":5100,
			"byteOffset":1187456,
			"target":34963
		},
		{
			"buffer":0,
			"byteLength":104664,
			"byteOffset":1192556,
			"target":34962
		},
		{
			"buffer":0,
			"byteLength":104664,
			"byteOffset":1297220,
			"target":34962
		},
		{
			"buffer":0,
			"byteLength":69776,
			"byteOffset":1401884,
			"target":34962
		},
		{
			"buffer":0,
			"byteLength":17580,
			"byteOffset":1471660,
			"target":34963
		},
		{
			"buffer":0,
			"byteLength":580,
			"byteOffset":1489240
		},
		{
			"buffer":0,
			"byteLength":1740,
			"byteOffset":1489820
		},
		{
			"buffer":0,
			"byteLength":2320,
			"byteOffset":1491560
		}
	],
	"samplers":[
		{
			"magFilter":9729,
			"minFilter":9987
		}
	],
	"buffers":[
		{
			"byteLength":1493880,
			"uri":"arena_half_blue.bin"
		}
	]
}
