{
	"asset":{
		"generator":"Khronos glTF Blender I/O v4.3.47",
		"version":"2.0"
	},
	"extensionsUsed":[
		"KHR_materials_emissive_strength"
	],
	"scene":0,
	"scenes":[
		{
			"name":"Scene",
			"nodes":[
				0
			]
		}
	],
	"nodes":[
		{
			"mesh":0,
			"name":"infantry",
			"rotation":[
				0.12957677245140076,
				-0.9693067669868469,
				-0.027684280648827553,
				0.20709379017353058
			],
			"scale":[
				0.5818397998809814,
				0.5818398594856262,
				0.5818398594856262
			],
			"translation":[
				4.70720911026001,
				-0.0005546724423766136,
				-2.3886396884918213
			]
		}
	],
	"animations":[
		{
			"channels":[
				{
					"sampler":0,
					"target":{
						"node":0,
						"path":"translation"
					}
				},
				{
					"sampler":1,
					"target":{
						"node":0,
						"path":"rotation"
					}
				},
				{
					"sampler":2,
					"target":{
						"node":0,
						"path":"scale"
					}
				}
			],
			"name":"Animation",
			"samplers":[
				{
					"input":8,
					"interpolation":"LINEAR",
					"output":9
				},
				{
					"input":8,
					"interpolation":"LINEAR",
					"output":10
				},
				{
					"input":11,
					"interpolation":"STEP",
					"output":12
				}
			]
		}
	],
	"materials":[
		{
			"doubleSided":true,
			"name":"tripo_mat_2aa95c4d",
			"pbrMetallicRoughness":{
				"baseColorTexture":{
					"index":0
				},
				"metallicFactor":0,
				"roughnessFactor":0.8999999761581421
			}
		},
		{
			"doubleSided":true,
			"emissiveFactor":[
				0,
				0.04626076690145653,
				1
			],
			"extensions":{
				"KHR_materials_emissive_strength":{
					"emissiveStrength":4.79320228099823
				}
			},
			"name":"EMISSION_BLUE",
			"pbrMetallicRoughness":{
				"baseColorFactor":[
					0,
					0,
					0,
					1
				],
				"metallicFactor":0,
				"roughnessFactor":0.5
			}
		}
	],
	"meshes":[
		{
			"name":"tripo_mesh_2aa95c4d",
			"primitives":[
				{
					"attributes":{
						"POSITION":0,
						"NORMAL":1,
						"TEXCOORD_0":2
					},
					"indices":3,
					"material":0
				},
				{
					"attributes":{
						"POSITION":4,
						"NORMAL":5,
						"TEXCOORD_0":6
					},
					"indices":7,
					"material":1
				}
			]
		}
	],
	"textures":[
		{
			"sampler":0,
			"source":0
		}
	],
	"images":[
		{
			"mimeType":"image/webp",
			"name":"tripo_node_d7df7fef-2a09-40ee-a8b3-6e150dd117bf_BaseColor",
			"uri":"base-color.webp"
		}
	],
	"accessors":[
		{
			"bufferView":0,
			"componentType":5126,
			"count":29460,
			"max":[
				0.4891061782836914,
				0.9945569038391113,
				0.459172785282135
			],
			"min":[
				-0.4891061782836914,
				0,
				-0.459172785282135
			],
			"type":"VEC3"
		},
		{
			"bufferView":1,
			"componentType":5126,
			"count":29460,
			"type":"VEC3"
		},
		{
			"bufferView":2,
			"componentType":5126,
			"count":29460,
			"type":"VEC2"
		},
		{
			"bufferView":3,
			"componentType":5123,
			"count":89853,
			"type":"SCALAR"
		},
		{
			"bufferView":4,
			"componentType":5126,
			"count":68,
			"max":[
				0.4591715931892395,
				0.5509805679321289,
				0.45817434787750244
			],
			"min":[
				-0.1305568814277649,
				0.36704981327056885,
				-0.45307260751724243
			],
			"type":"VEC3"
		},
		{
			"bufferView":5,
			"componentType":5126,
			"count":68,
			"type":"VEC3"
		},
		{
			"bufferView":6,
			"componentType":5126,
			"count":68,
			"type":"VEC2"
		},
		{
			"bufferView":7,
			"componentType":5123,
			"count":144,
			"type":"SCALAR"
		},
		{
			"bufferView":8,
			"componentType":5126,
			"count":250,
			"max":[
				10.416666666666666
			],
			"min":[
				0.041666666666666664
			],
			"type":"SCALAR"
		},
		{
			"bufferView":9,
			"componentType":5126,
			"count":250,
			"type":"VEC3"
		},
		{
			"bufferView":10,
			"componentType":5126,
			"count":250,
			"type":"VEC4"
		},
		{
			"bufferView":11,
			"componentType":5126,
			"count":2,
			"max":[
				10.416666666666666
			],
			"min":[
				0.041666666666666664
			],
			"type":"SCALAR"
		},
		{
			"bufferView":12,
			"componentType":5126,
			"count":2,
			"type":"VEC3"
		}
	],
	"bufferViews":[
		{
			"buffer":0,
			"byteLength":353520,
			"byteOffset":0,
			"target":34962
		},
		{
			"buffer":0,
			"byteLength":353520,
			"byteOffset":353520,
			"target":34962
		},
		{
			"buffer":0,
			"byteLength":235680,
			"byteOffset":707040,
			"target":34962
		},
		{
			"buffer":0,
			"byteLength":179706,
			"byteOffset":942720,
			"target":34963
		},
		{
			"buffer":0,
			"byteLength":816,
			"byteOffset":1122428,
			"target":34962
		},
		{
			"buffer":0,
			"byteLength":816,
			"byteOffset":1123244,
			"target":34962
		},
		{
			"buffer":0,
			"byteLength":544,
			"byteOffset":1124060,
			"target":34962
		},
		{
			"buffer":0,
			"byteLength":288,
			"byteOffset":1124604,
			"target":34963
		},
		{
			"buffer":0,
			"byteLength":1000,
			"byteOffset":1124892
		},
		{
			"buffer":0,
			"byteLength":3000,
			"byteOffset":1125892
		},
		{
			"buffer":0,
			"byteLength":4000,
			"byteOffset":1128892
		},
		{
			"buffer":0,
			"byteLength":8,
			"byteOffset":1132892
		},
		{
			"buffer":0,
			"byteLength":24,
			"byteOffset":1132900
		}
	],
	"samplers":[
		{
			"magFilter":9729,
			"minFilter":9987
		}
	],
	"buffers":[
		{
			"byteLength":1132924,
			"uri":"infantry.bin"
		}
	]
}
