{
	"asset":{
		"generator":"Khronos glTF Blender I/O v4.3.47",
		"version":"2.0"
	},
	"extensionsUsed":[
		"KHR_materials_emissive_strength"
	],
	"scene":0,
	"scenes":[
		{
			"name":"Scene",
			"nodes":[
				0
			]
		}
	],
	"nodes":[
		{
			"mesh":0,
			"name":"engineer",
			"rotation":[
				0,
				-0.3625710904598236,
				0,
				0.9319561719894409
			],
			"scale":[
				0.851953387260437,
				0.851953387260437,
				0.851953387260437
			],
			"translation":[
				0.9022136926651001,
				0.38535386323928833,
				0.6125966310501099
			]
		}
	],
	"materials":[
		{
			"doubleSided":true,
			"name":"tripo_mat_4c567418",
			"pbrMetallicRoughness":{
				"baseColorTexture":{
					"index":0
				},
				"metallicFactor":0,
				"roughnessFactor":0.8999999761581421
			}
		},
		{
			"doubleSided":true,
			"emissiveFactor":[
				0,
				0.04626076690145653,
				1
			],
			"extensions":{
				"KHR_materials_emissive_strength":{
					"emissiveStrength":4.79320228099823
				}
			},
			"name":"EMISSION_BLUE",
			"pbrMetallicRoughness":{
				"baseColorFactor":[
					0,
					0,
					0,
					1
				],
				"metallicFactor":0,
				"roughnessFactor":0.5
			}
		}
	],
	"meshes":[
		{
			"name":"tripo_mesh_4c567418",
			"primitives":[
				{
					"attributes":{
						"POSITION":0,
						"NORMAL":1,
						"TEXCOORD_0":2
					},
					"indices":3,
					"material":0
				},
				{
					"attributes":{
						"POSITION":4,
						"NORMAL":5,
						"TEXCOORD_0":6
					},
					"indices":7,
					"material":1
				}
			]
		}
	],
	"textures":[
		{
			"sampler":0,
			"source":0
		}
	],
	"images":[
		{
			"mimeType":"image/jpeg",
			"name":"tripo_node_6c18264b-5c27-4731-a203-7066cc836da8_BaseColor",
			"uri":"tripo_node_6c18264b-5c27-4731-a203-7066cc836da8_BaseColor.jpg"
		}
	],
	"accessors":[
		{
			"bufferView":0,
			"componentType":5126,
			"count":38139,
			"max":[
				0.49792104959487915,
				0.9327174425125122,
				0.39931192994117737
			],
			"min":[
				-0.49792104959487915,
				0,
				-0.39931192994117737
			],
			"type":"VEC3"
		},
		{
			"bufferView":1,
			"componentType":5126,
			"count":38139,
			"type":"VEC3"
		},
		{
			"bufferView":2,
			"componentType":5126,
			"count":38139,
			"type":"VEC2"
		},
		{
			"bufferView":3,
			"componentType":5123,
			"count":103212,
			"type":"SCALAR"
		},
		{
			"bufferView":4,
			"componentType":5126,
			"count":66,
			"max":[
				0.46354588866233826,
				0.35869622230529785,
				0.37905701994895935
			],
			"min":[
				-0.04059087857604027,
				0.26244646310806274,
				-0.3810376226902008
			],
			"type":"VEC3"
		},
		{
			"bufferView":5,
			"componentType":5126,
			"count":66,
			"type":"VEC3"
		},
		{
			"bufferView":6,
			"componentType":5126,
			"count":66,
			"type":"VEC2"
		},
		{
			"bufferView":7,
			"componentType":5123,
			"count":150,
			"type":"SCALAR"
		}
	],
	"bufferViews":[
		{
			"buffer":0,
			"byteLength":457668,
			"byteOffset":0,
			"target":34962
		},
		{
			"buffer":0,
			"byteLength":457668,
			"byteOffset":457668,
			"target":34962
		},
		{
			"buffer":0,
			"byteLength":305112,
			"byteOffset":915336,
			"target":34962
		},
		{
			"buffer":0,
			"byteLength":206424,
			"byteOffset":1220448,
			"target":34963
		},
		{
			"buffer":0,
			"byteLength":792,
			"byteOffset":1426872,
			"target":34962
		},
		{
			"buffer":0,
			"byteLength":792,
			"byteOffset":1427664,
			"target":34962
		},
		{
			"buffer":0,
			"byteLength":528,
			"byteOffset":1428456,
			"target":34962
		},
		{
			"buffer":0,
			"byteLength":300,
			"byteOffset":1428984,
			"target":34963
		}
	],
	"samplers":[
		{
			"magFilter":9729,
			"minFilter":9987
		}
	],
	"buffers":[
		{
			"byteLength":1429284,
			"uri":"engineer.bin"
		}
	]
}
