{
	"asset":{
		"generator":"Khronos glTF Blender I/O v4.3.47",
		"version":"2.0"
	},
	"extensionsUsed":[
		"KHR_materials_emissive_strength"
	],
	"scene":0,
	"scenes":[
		{
			"name":"Scene",
			"nodes":[
				2
			]
		}
	],
	"nodes":[
		{
			"mesh":0,
			"name":"sentry-chassis",
			"scale":[
				0.5890768766403198,
				0.5890768766403198,
				0.5890768766403198
			],
			"translation":[
				0.0010249614715576172,
				0,
				-0.0013952255249023438
			]
		},
		{
			"mesh":1,
			"name":"sentry-gimbal",
			"scale":[
				0.5890768766403198,
				0.5890768766403198,
				0.5890768766403198
			],
			"translation":[
				0.0010249614715576172,
				0,
				-0.0013952255249023438
			]
		},
		{
			"children":[
				0,
				1
			],
			"name":"sentry",
			"translation":[
				3.25136137008667,
				0.020838983356952667,
				5.862103462219238
			]
		}
	],
	"animations":[
		{
			"channels":[
				{
					"sampler":0,
					"target":{
						"node":2,
						"path":"translation"
					}
				},
				{
					"sampler":1,
					"target":{
						"node":2,
						"path":"rotation"
					}
				},
				{
					"sampler":2,
					"target":{
						"node":2,
						"path":"scale"
					}
				},
				{
					"sampler":3,
					"target":{
						"node":0,
						"path":"translation"
					}
				},
				{
					"sampler":4,
					"target":{
						"node":0,
						"path":"rotation"
					}
				},
				{
					"sampler":5,
					"target":{
						"node":0,
						"path":"scale"
					}
				},
				{
					"sampler":6,
					"target":{
						"node":1,
						"path":"translation"
					}
				},
				{
					"sampler":7,
					"target":{
						"node":1,
						"path":"rotation"
					}
				},
				{
					"sampler":8,
					"target":{
						"node":1,
						"path":"scale"
					}
				}
			],
			"name":"Animation",
			"samplers":[
				{
					"input":12,
					"interpolation":"LINEAR",
					"output":13
				},
				{
					"input":14,
					"interpolation":"STEP",
					"output":15
				},
				{
					"input":14,
					"interpolation":"STEP",
					"output":16
				},
				{
					"input":14,
					"interpolation":"STEP",
					"output":17
				},
				{
					"input":12,
					"interpolation":"LINEAR",
					"output":18
				},
				{
					"input":14,
					"interpolation":"STEP",
					"output":19
				},
				{
					"input":14,
					"interpolation":"STEP",
					"output":20
				},
				{
					"input":12,
					"interpolation":"LINEAR",
					"output":21
				},
				{
					"input":14,
					"interpolation":"STEP",
					"output":22
				}
			]
		}
	],
	"materials":[
		{
			"doubleSided":true,
			"name":"tripo_mat_255135ac",
			"pbrMetallicRoughness":{
				"baseColorTexture":{
					"index":0
				},
				"metallicFactor":0,
				"roughnessFactor":0.8999999761581421
			}
		},
		{
			"doubleSided":true,
			"emissiveFactor":[
				0,
				0.04626076690145653,
				1
			],
			"extensions":{
				"KHR_materials_emissive_strength":{
					"emissiveStrength":4.79320228099823
				}
			},
			"name":"EMISSION_BLUE",
			"pbrMetallicRoughness":{
				"baseColorFactor":[
					0,
					0,
					0,
					1
				],
				"metallicFactor":0,
				"roughnessFactor":0.5
			}
		}
	],
	"meshes":[
		{
			"name":"tripo_mesh_255135ac",
			"primitives":[
				{
					"attributes":{
						"POSITION":0,
						"NORMAL":1,
						"TEXCOORD_0":2
					},
					"indices":3,
					"material":0
				},
				{
					"attributes":{
						"POSITION":4,
						"NORMAL":5,
						"TEXCOORD_0":6
					},
					"indices":7,
					"material":1
				}
			]
		},
		{
			"name":"tripo_mesh_255135ac.002",
			"primitives":[
				{
					"attributes":{
						"POSITION":8,
						"NORMAL":9,
						"TEXCOORD_0":10
					},
					"indices":11,
					"material":0
				}
			]
		}
	],
	"textures":[
		{
			"sampler":0,
			"source":0
		}
	],
	"images":[
		{
			"mimeType":"image/png",
			"name":"tripo_image_255135ac_0",
			"uri":"tripo_image_255135ac_0.png"
		}
	],
	"accessors":[
		{
			"bufferView":0,
			"componentType":5126,
			"count":23448,
			"max":[
				0.49600929021835327,
				0.28786104917526245,
				0.49514028429985046
			],
			"min":[
				-0.49600929021835327,
				0,
				-0.49514028429985046
			],
			"type":"VEC3"
		},
		{
			"bufferView":1,
			"componentType":5126,
			"count":23448,
			"type":"VEC3"
		},
		{
			"bufferView":2,
			"componentType":5126,
			"count":23448,
			"type":"VEC2"
		},
		{
			"bufferView":3,
			"componentType":5123,
			"count":72852,
			"type":"SCALAR"
		},
		{
			"bufferView":4,
			"componentType":5126,
			"count":136,
			"max":[
				0.4697355329990387,
				0.20210355520248413,
				0.48239248991012573
			],
			"min":[
				-0.4797030985355377,
				0.1001264676451683,
				-0.4714003801345825
			],
			"type":"VEC3"
		},
		{
			"bufferView":5,
			"componentType":5126,
			"count":136,
			"type":"VEC3"
		},
		{
			"bufferView":6,
			"componentType":5126,
			"count":136,
			"type":"VEC2"
		},
		{
			"bufferView":7,
			"componentType":5123,
			"count":312,
			"type":"SCALAR"
		},
		{
			"bufferView":8,
			"componentType":5126,
			"count":9452,
			"max":[
				0.41875994205474854,
				0.4169856905937195,
				0.39292871952056885
			],
			"min":[
				-0.44302496314048767,
				0.2628173232078552,
				-0.3070142865180969
			],
			"type":"VEC3"
		},
		{
			"bufferView":9,
			"componentType":5126,
			"count":9452,
			"type":"VEC3"
		},
		{
			"bufferView":10,
			"componentType":5126,
			"count":9452,
			"type":"VEC2"
		},
		{
			"bufferView":11,
			"componentType":5123,
			"count":31416,
			"type":"SCALAR"
		},
		{
			"bufferView":12,
			"componentType":5126,
			"count":250,
			"max":[
				10.416666666666666
			],
			"min":[
				0.041666666666666664
			],
			"type":"SCALAR"
		},
		{
			"bufferView":13,
			"componentType":5126,
			"count":250,
			"type":"VEC3"
		},
		{
			"bufferView":14,
			"componentType":5126,
			"count":2,
			"max":[
				10.416666666666666
			],
			"min":[
				0.041666666666666664
			],
			"type":"SCALAR"
		},
		{
			"bufferView":15,
			"componentType":5126,
			"count":2,
			"type":"VEC4"
		},
		{
			"bufferView":16,
			"componentType":5126,
			"count":2,
			"type":"VEC3"
		},
		{
			"bufferView":17,
			"componentType":5126,
			"count":2,
			"type":"VEC3"
		},
		{
			"bufferView":18,
			"componentType":5126,
			"count":250,
			"type":"VEC4"
		},
		{
			"bufferView":19,
			"componentType":5126,
			"count":2,
			"type":"VEC3"
		},
		{
			"bufferView":20,
			"componentType":5126,
			"count":2,
			"type":"VEC3"
		},
		{
			"bufferView":21,
			"componentType":5126,
			"count":250,
			"type":"VEC4"
		},
		{
			"bufferView":22,
			"componentType":5126,
			"count":2,
			"type":"VEC3"
		}
	],
	"bufferViews":[
		{
			"buffer":0,
			"byteLength":281376,
			"byteOffset":0,
			"target":34962
		},
		{
			"buffer":0,
			"byteLength":281376,
			"byteOffset":281376,
			"target":34962
		},
		{
			"buffer":0,
			"byteLength":187584,
			"byteOffset":562752,
			"target":34962
		},
		{
			"buffer":0,
			"byteLength":145704,
			"byteOffset":750336,
			"target":34963
		},
		{
			"buffer":0,
			"byteLength":1632,
			"byteOffset":896040,
			"target":34962
		},
		{
			"buffer":0,
			"byteLength":1632,
			"byteOffset":897672,
			"target":34962
		},
		{
			"buffer":0,
			"byteLength":1088,
			"byteOffset":899304,
			"target":34962
		},
		{
			"buffer":0,
			"byteLength":624,
			"byteOffset":900392,
			"target":34963
		},
		{
			"buffer":0,
			"byteLength":113424,
			"byteOffset":901016,
			"target":34962
		},
		{
			"buffer":0,
			"byteLength":113424,
			"byteOffset":1014440,
			"target":34962
		},
		{
			"buffer":0,
			"byteLength":75616,
			"byteOffset":1127864,
			"target":34962
		},
		{
			"buffer":0,
			"byteLength":62832,
			"byteOffset":1203480,
			"target":34963
		},
		{
			"buffer":0,
			"byteLength":1000,
			"byteOffset":1266312
		},
		{
			"buffer":0,
			"byteLength":3000,
			"byteOffset":1267312
		},
		{
			"buffer":0,
			"byteLength":8,
			"byteOffset":1270312
		},
		{
			"buffer":0,
			"byteLength":32,
			"byteOffset":1270320
		},
		{
			"buffer":0,
			"byteLength":24,
			"byteOffset":1270352
		},
		{
			"buffer":0,
			"byteLength":24,
			"byteOffset":1270376
		},
		{
			"buffer":0,
			"byteLength":4000,
			"byteOffset":1270400
		},
		{
			"buffer":0,
			"byteLength":24,
			"byteOffset":1274400
		},
		{
			"buffer":0,
			"byteLength":24,
			"byteOffset":1274424
		},
		{
			"buffer":0,
			"byteLength":4000,
			"byteOffset":1274448
		},
		{
			"buffer":0,
			"byteLength":24,
			"byteOffset":1278448
		}
	],
	"samplers":[
		{
			"magFilter":9729,
			"minFilter":9987
		}
	],
	"buffers":[
		{
			"byteLength":1278472,
			"uri":"sentry.bin"
		}
	]
}
